<svg xmlns="http://www.w3.org/2000/svg" x="0px" y="0px"
width="64" height="64"
viewBox="0 0 172 172"
style=" fill:#000000;"><g fill="none" fill-rule="nonzero" stroke="none" stroke-width="1" stroke-linecap="butt" stroke-linejoin="miter" stroke-miterlimit="10" stroke-dasharray="" stroke-dashoffset="0" font-family="none" font-weight="none" font-size="none" text-anchor="none" style="mix-blend-mode: normal"><path d="M0,172v-172h172v172z" fill="none"></path><path d="M45.58,172c-25.17314,0 -45.58,-20.40686 -45.58,-45.58v-80.84c0,-25.17314 20.40686,-45.58 45.58,-45.58h80.84c25.17314,0 45.58,20.40686 45.58,45.58v80.84c0,25.17314 -20.40686,45.58 -45.58,45.58zM122.98,168.56c25.17314,0 45.58,-20.40686 45.58,-45.58v-73.96c0,-25.17314 -20.40686,-45.58 -45.58,-45.58h-73.96c-25.17314,0 -45.58,20.40686 -45.58,45.58v73.96c0,25.17314 20.40686,45.58 45.58,45.58z" fill="#cccccc"></path><g><path d="M166.96871,88.17662l-9.57771,-1.19029c-0.86234,-0.11389 -1.62099,-0.6265 -2.04841,-1.38406c-2.68161,-4.56712 -6.13803,-8.6324 -10.21438,-12.01366c-0.62522,-0.52072 -0.98969,-1.29014 -0.99652,-2.10377v-26.79545c-7.78987,-1.0414 -15.53857,2.18282 -20.29036,8.44278c-13.55209,-9.36955 -29.66963,-14.31986 -46.14464,-14.1728c-25.13457,0 -47.25189,10.90641 -60.12367,27.43212c-0.48777,0.66687 -1.24794,1.08099 -2.07274,1.12919c-0.82481,0.0482 -1.62803,-0.27455 -2.19017,-0.88006c-3.93509,-4.88591 -5.56968,-11.23258 -4.48436,-17.41151c-5.10114,3.93474 -8.23593,9.89583 -8.58681,16.32861c-0.35088,6.43278 2.11694,12.69947 6.75984,17.1657c0.75476,0.70572 1.05362,1.77308 0.77508,2.76813c-1.35079,4.66961 -2.0403,9.50552 -2.04841,14.36657c0.17939,15.03993 6.45229,29.36373 17.38382,39.69491c0.5941,0.57681 0.89878,1.38928 0.83044,2.2145l-1.93769,19.23847c-0.26936,2.69636 1.45259,5.19144 4.06914,5.89611l12.87178,3.46016c2.31084,0.61558 4.75575,-0.32219 6.06219,-2.32522l6.17292,-9.43931c0.67006,-1.02063 1.92966,-1.48174 3.1003,-1.13493c15.18863,4.33781 31.28819,4.33781 46.47682,0c1.16215,-0.33328 2.40615,0.12622 3.07262,1.13493l6.14524,9.41163c1.30644,2.00303 3.75135,2.94081 6.06219,2.32523l12.95482,-3.46016c2.61655,-0.70467 4.33851,-3.19974 4.06914,-5.89611l-1.3287,-14.06208c-0.10186,-1.17663 0.55402,-2.2883 1.63319,-2.76812c9.01959,-3.98318 16.63032,-10.59072 21.84051,-18.96166c0.43425,-0.72928 1.17907,-1.21903 2.02073,-1.3287l9.88221,-1.24566c2.78462,-0.35074 4.86622,-2.72972 4.84422,-5.53625v-23.39066c0.00004,-2.84323 -2.15365,-5.22425 -4.98263,-5.50857z" fill="#f9e3ae"></path><path d="M153.87548,127.04109c-3.12128,-3.1358 -7.40696,-4.8309 -11.82877,-4.6786c-4.42181,0.1523 -8.58071,2.13824 -11.47884,5.48136c-11.0725,12.81642 -29.31444,21.20384 -50.10306,21.20384c-22.53254,0 -42.18622,-9.88221 -52.59437,-24.55327c-1.83312,-2.64572 -4.74375,-4.34386 -7.94903,-4.63768c-3.20529,-0.29382 -6.37614,0.84685 -8.65972,3.11521v0c3.00809,6.1787 7.05273,11.79624 11.9583,16.60875c0.5941,0.57681 0.89878,1.38928 0.83044,2.2145l-1.93769,19.23847c-0.26936,2.69636 1.45259,5.19144 4.06914,5.89611l12.76106,3.43247c2.31084,0.61558 4.75575,-0.32219 6.06219,-2.32522l6.17292,-9.43931c0.67006,-1.02063 1.92966,-1.48174 3.1003,-1.13493c15.18863,4.33781 31.28819,4.33781 46.47682,0c1.16215,-0.33328 2.40615,0.12622 3.07262,1.13493l6.14524,9.41163c1.30644,2.00303 3.75135,2.94081 6.06219,2.32523l12.95482,-3.46016c2.61655,-0.70467 4.33851,-3.19974 4.06914,-5.89611l-1.3287,-14.06208c-0.10186,-1.17663 0.55402,-2.2883 1.63319,-2.76812c8.27961,-3.73496 15.37477,-9.67154 20.51181,-17.16238z" fill="#f6d397"></path><path d="M95.6895,0.20561c-11.46595,0 -20.76094,9.29499 -20.76094,20.76094c0,11.46595 9.29499,20.76094 20.76094,20.76094c11.46595,0 20.76094,-9.29499 20.76094,-20.76094c0,-11.46595 -9.29499,-20.76094 -20.76094,-20.76094z" fill="#c2cde7"></path><path d="M77.69668,38.95936c-17.33861,-0.17043 -34.25594,5.34228 -48.16537,15.69527l1.10725,1.49479c3.31931,4.49605 9.46875,5.81379 14.33889,3.07262c9.96755,-5.67126 21.25143,-8.62111 32.71924,-8.55351c15.16153,-0.18805 29.88993,5.05526 41.52187,14.78179l2.76812,-15.41846c-11.73685,-7.03104 -28.81618,-11.0725 -44.29,-11.0725z" fill="#faefde"></path><path d="M52.78356,36.19123c0.00594,-11.55557 7.95722,-21.59026 19.20543,-24.23768c11.24822,-2.64742 22.84046,2.78742 27.99979,13.12727c5.15933,10.33985 2.53131,22.87026 -6.3477,30.26583c-13.17627,-2.54668 -21.48065,-2.54668 -31.8888,-0.02768c-5.67875,-4.72998 -8.96431,-11.73714 -8.96873,-19.12774z" fill="#ced8ed"></path><path d="M94.30543,105.39436c0,-6.11517 -4.95733,-11.0725 -11.0725,-11.0725v-11.0725c0,-1.52879 -1.23933,-2.76813 -2.76813,-2.76813c-1.52879,0 -2.76812,1.23933 -2.76812,2.76813v11.0725c-3.05759,0 -5.53625,-2.47866 -5.53625,-5.53625v-5.53625c0,-3.05759 2.47866,-5.53625 5.53625,-5.53625h5.53625c3.05759,0 5.53625,2.47866 5.53625,5.53625c0,1.52879 1.23933,2.76812 2.76813,2.76812c1.52879,0 2.76812,-1.23933 2.76812,-2.76812c0,-6.11517 -4.95733,-11.0725 -11.0725,-11.0725v-2.76812c0,-1.52879 -1.23933,-2.76813 -2.76813,-2.76813c-1.52879,0 -2.76812,1.23933 -2.76812,2.76813v2.76812c-6.11517,0 -11.0725,4.95733 -11.0725,11.0725v5.53625c0,6.11517 4.95733,11.0725 11.0725,11.0725h5.53625c3.05759,0 5.53625,2.47866 5.53625,5.53625v5.53625c0,3.05759 -2.47866,5.53625 -5.53625,5.53625v-11.0725c0,-1.52879 -1.23933,-2.76813 -2.76813,-2.76813c-1.52879,0 -2.76812,1.23933 -2.76812,2.76813v11.0725c-3.05759,0 -5.53625,-2.47866 -5.53625,-5.53625c0,-1.52879 -1.23933,-2.76812 -2.76813,-2.76812c-1.52879,0 -2.76813,1.23933 -2.76813,2.76812c0,6.11517 4.95733,11.0725 11.0725,11.0725v2.76812c0,1.52879 1.23933,2.76812 2.76812,2.76812c1.52879,0 2.76813,-1.23933 2.76813,-2.76812v-2.76812c6.11517,0 11.0725,-4.95733 11.0725,-11.0725zM135.93803,86.01748c-3.05759,0 -5.53625,2.47866 -5.53625,5.53625c0,3.05759 2.47866,5.53625 5.53625,5.53625c3.05759,0 5.53625,-2.47866 5.53625,-5.53625c0,-3.05759 -2.47866,-5.53625 -5.53625,-5.53625zM80.46481,138.61186c-1.52879,0 -2.76812,1.23933 -2.76812,2.76812v5.53625c0,1.52879 1.23933,2.76812 2.76812,2.76812c1.52879,0 2.76813,-1.23933 2.76813,-2.76812v-5.53625c0,-1.52879 -1.23933,-2.76812 -2.76813,-2.76812zM67.23317,137.22779c-0.71962,-0.1559 -1.47169,-0.01867 -2.08988,0.38133c-0.61818,0.4 -1.05153,1.02981 -1.20419,1.75012l-1.16261,5.53625c-0.1559,0.71962 -0.01867,1.47169 0.38133,2.08988c0.4,0.61818 1.02981,1.05153 1.75012,1.20419h0.58131c1.32785,0.02955 2.48954,-0.88819 2.76812,-2.18682l1.16261,-5.53625c0.28764,-1.49764 -0.6902,-2.94583 -2.18682,-3.23871zM54.58284,133.07561c-0.67169,-0.29781 -1.43423,-0.31635 -2.1196,-0.05155c-0.68538,0.2648 -1.23735,0.79123 -1.53432,1.46329l-2.24218,5.06567c-0.61916,1.39885 0.0129,3.03476 1.41174,3.65392c1.39885,0.61916 3.03476,-0.0129 3.65393,-1.41174l2.24218,-5.06567c0.29781,-0.67169 0.31635,-1.43423 0.05155,-2.1196c-0.2648,-0.68538 -0.79123,-1.23735 -1.46329,-1.53432zM39.16438,127.06878l-3.26639,4.48436c-0.90199,1.23832 -0.62934,2.97339 0.60899,3.87537c1.23832,0.90199 2.97339,0.62934 3.87537,-0.60899l3.26639,-4.51204c0.90199,-1.23832 0.62934,-2.97339 -0.60899,-3.87538c-1.23832,-0.90199 -2.97339,-0.62934 -3.87538,0.60899zM97.07356,139.35925c-0.32105,-1.52879 -1.82064,-2.50787 -3.34943,-2.18682c-1.52879,0.32105 -2.50787,1.82064 -2.18682,3.34943l1.16261,5.53625c0.27859,1.29863 1.44028,2.21636 2.76812,2.18682h0.58131c0.72031,-0.15266 1.35012,-0.58601 1.75012,-1.20419c0.4,-0.61818 0.53723,-1.37026 0.38133,-2.08988zM110.02838,134.51503c-0.61916,-1.39885 -2.25508,-2.03091 -3.65392,-1.41174c-1.39885,0.61916 -2.03091,2.25508 -1.41174,3.65392l2.24218,5.06567c0.61916,1.39885 2.25508,2.03091 3.65392,1.41174c1.39885,-0.61916 2.03091,-2.25508 1.41174,-3.65392zM121.76523,127.06878c-0.91782,-1.16705 -2.59293,-1.40216 -3.79656,-0.53287c-1.20363,0.86929 -1.5071,2.53337 -0.6878,3.77157l3.26639,4.48436c0.90199,1.23832 2.63705,1.51098 3.87537,0.60899c1.23832,-0.90199 1.51098,-2.63705 0.60899,-3.87538z" fill="#8d6c9f"></path><path d="M167.30089,85.43618v0l-9.57771,-1.21798c-2.83264,-4.8467 -6.49633,-9.15692 -10.82337,-12.73337v-26.79545c0.01017,-1.40794 -1.03814,-2.5992 -2.43595,-2.76813c-6.79027,-0.87692 -13.63736,1.13102 -18.87861,5.53625h-0.13841l-0.22145,0.19377l-0.30449,0.27681c-0.55363,0.47058 -1.07957,0.96884 -1.60551,1.49479c-5.04328,-3.28704 -10.44924,-5.98073 -16.11049,-8.02756c8.52888,-4.8353 13.15997,-14.45717 11.6185,-24.13941c-1.54147,-9.68224 -8.93158,-17.39027 -18.54034,-19.33795c-9.60877,-1.94768 -19.41707,2.27427 -24.6071,10.59204c-7.77433,0.49022 -14.97268,4.26581 -19.79563,10.38298c-4.82295,6.11717 -6.8147,13.99779 -5.47735,21.67191c-13.79387,4.43521 -25.955,12.87669 -34.93374,24.24878c-2.73492,-3.40566 -4.21995,-7.64581 -4.20755,-12.01366c0.01285,-1.0769 0.11469,-2.1509 0.30449,-3.21102c0.25701,-1.14643 -0.23768,-2.33021 -1.23398,-2.95289c-0.9963,-0.62269 -2.27714,-0.54862 -3.19502,0.18477c-5.75061,4.43162 -9.28201,11.15127 -9.67029,18.40096c-0.38828,7.24969 2.40518,14.30809 7.64956,19.32858c-1.43786,4.97525 -2.16478,10.12887 -2.15914,15.30773c0.22607,15.73003 6.79394,30.70239 18.21426,41.52187l-1.91001,19.37687c-0.40983,4.05357 2.18154,7.80578 6.11756,8.858l12.98251,3.48784c3.47058,0.92999 7.14562,-0.47747 9.10713,-3.48784l6.17292,-9.41162c15.69523,4.48243 32.33174,4.48243 48.02697,0l6.14524,9.38394c1.96151,3.01036 5.63655,4.41782 9.10713,3.48784l12.95482,-3.46016c3.86954,-1.11857 6.37843,-4.85272 5.95147,-8.858l-1.41174,-13.97903c9.50101,-4.23328 17.49333,-11.25069 22.92007,-20.12427l9.88221,-1.24566c4.18242,-0.51968 7.31233,-4.08991 7.28017,-8.30437v-23.41834c0.00942,-4.16559 -3.06872,-7.69361 -7.19712,-8.24901zM95.6895,2.97373c8.05723,-0.08858 15.18786,5.1984 17.44402,12.93381c2.25616,7.73541 -0.9141,16.02681 -7.75558,20.28369c-0.07307,-13.41528 -9.7552,-24.84719 -22.97544,-27.12762c3.35932,-3.82996 8.19272,-6.04528 13.287,-6.08988zM77.69668,14.04623c8.99553,0.0146 17.08843,5.46934 20.4774,13.80208c3.38897,8.33274 1.40056,17.8876 -5.03126,24.17659c-10.16077,-2.37254 -20.73151,-2.37254 -30.89227,0c-6.43182,-6.28899 -8.42023,-15.84385 -5.03126,-24.17659c3.38897,-8.33274 11.48187,-13.78748 20.4774,-13.80208zM169.04481,117.10353c0.01017,1.40794 -1.03814,2.5992 -2.43595,2.76812l-9.88221,1.24566c-1.70429,0.2441 -3.19801,1.2672 -4.04146,2.76812c-4.87606,7.90069 -12.02583,14.14346 -20.51181,17.90977c-2.13665,0.97712 -3.42385,3.19644 -3.21103,5.53625l1.3287,13.92367c0.14051,1.35722 -0.72894,2.61439 -2.04841,2.96189l-12.95483,3.46016c-1.15974,0.31442 -2.38987,-0.15527 -3.04494,-1.16261l-6.14524,-9.41162c-1.01858,-1.54675 -2.74311,-2.48173 -4.59509,-2.49131c-0.5246,0 -1.04654,0.07456 -1.55015,0.22145c-14.68531,4.16971 -30.24136,4.16971 -44.92667,0c-2.3328,-0.68004 -4.83637,0.24056 -6.17292,2.26986l-6.03451,9.43931c-0.65506,1.00734 -1.8852,1.47703 -3.04494,1.16261l-12.98251,-3.48784c-1.31948,-0.34751 -2.18892,-1.60468 -2.04841,-2.96189l1.93769,-19.23847c0.16669,-1.64673 -0.41213,-3.28167 -1.57783,-4.45668c-10.39834,-9.81022 -16.3885,-23.4079 -16.60875,-37.70186c0.0018,-4.62647 0.65408,-9.2297 1.93769,-13.67454c0.56391,-1.98494 -0.02289,-4.11877 -1.52247,-5.53625c-6.63442,-6.38355 -7.8609,-16.5541 -2.93421,-24.33182c0.65048,4.39031 2.47749,8.52261 5.28712,11.9583c1.01542,1.26831 2.55518,2.00251 4.17987,1.99305v0c1.73279,-0.01447 3.36399,-0.81988 4.429,-2.18682c8.30206,-10.3564 19.45521,-18.05487 32.08257,-22.145c1.05845,2.79828 2.56353,5.40646 4.45668,7.72307c-1.38406,0.47058 -2.76812,0.96884 -4.09682,1.52247c-1.41413,0.58859 -2.08337,2.21211 -1.49479,3.62624c0.58859,1.41413 2.21211,2.08337 3.62624,1.49479c15.20985,-6.19871 32.26136,-6.08915 47.3903,0.30449c1.31637,0.30679 2.66182,-0.38195 3.18266,-1.62922c0.52084,-1.24727 0.06475,-2.6883 -1.07888,-3.40877c-1.60551,-0.69203 -3.21103,-1.30102 -4.8719,-1.85464c1.89058,-2.30818 3.39555,-4.90684 4.45668,-7.69539c5.77824,1.93736 11.29242,4.58752 16.41498,7.88916c-2.28657,3.85356 -3.4915,8.25249 -3.48784,12.73337c0,1.52879 1.23933,2.76813 2.76812,2.76813c1.52879,0 2.76812,-1.23933 2.76812,-2.76813c0.00171,-4.25268 1.40241,-8.38669 3.9861,-11.76453v0c3.66463,-4.79605 9.35491,-7.61049 15.39077,-7.61234v24.22109c0.00553,1.63697 0.73523,3.18757 1.99305,4.23523c3.82211,3.17122 7.06306,6.98355 9.57771,11.26627c0.85485,1.51513 2.37215,2.54034 4.09682,2.76813l9.57771,1.19029c1.39781,0.16892 2.44612,1.36019 2.43595,2.76812z" fill="#8d6c9f"></path><path d="M63.85606,38.95936c1.52879,0 2.76812,-1.23933 2.76812,-2.76812c0,-6.11517 4.95733,-11.0725 11.0725,-11.0725c1.52879,0 2.76812,-1.23933 2.76812,-2.76813c0,-1.52879 -1.23933,-2.76812 -2.76812,-2.76812c-9.17276,0 -16.60875,7.43599 -16.60875,16.60875c0,1.52879 1.23933,2.76812 2.76812,2.76812z" fill="#8d6c9f"></path></g><path d="" fill="none"></path><path d="" fill="none"></path><path d="M0,172v-172h172v172z" fill="none"></path><path d="M3.44,168.56v-165.12h165.12v165.12z" fill="none"></path><path d="M0,172v-172h172v172z" fill="none"></path><path d="M6.88,165.12v-158.24h158.24v158.24z" fill="none"></path><path d="M0,172v-172h172v172z" fill="none"></path><path d="M10.32,161.68v-151.36h151.36v151.36z" fill="none"></path><path d="M0,172v-172h172v172z" fill="none"></path><path d="M13.76,158.24v-144.48h144.48v144.48z" fill="none"></path><path d="M0,172v-172h172v172z" fill="none"></path><path d="M17.2,154.8v-137.6h137.6v137.6z" fill="none"></path><path d="M0,172v-172h172v172z" fill="none"></path><path d="M20.64,151.36v-130.72h130.72v130.72z" fill="none"></path><path d="M0,172v-172h172v172z" fill="none"></path><path d="M24.08,147.92v-123.84h123.84v123.84z" fill="none"></path><path d="M0,172v-172h172v172z" fill="none"></path><path d="M27.52,144.48v-116.96h116.96v116.96z" fill="none"></path><path d="M0,172v-172h172v172z" fill="none"></path><path d="M30.96,141.04v-110.08h110.08v110.08z" fill="none"></path><path d="M0,172v-172h172v172z" fill="none"></path><path d="M34.4,137.6v-103.2h103.2v103.2z" fill="none"></path><path d="M0,172v-172h172v172z" fill="none"></path><path d="M30.96,141.04v-110.08h110.08v110.08z" fill="none"></path><path d="M0,172v-172h172v172z" fill="none"></path><path d="M17.2,154.8v-137.6h137.6v137.6z" fill="none"></path><path d="M0,172v-172h172v172z" fill="none"></path><path d="M10.32,161.68v-151.36h151.36v151.36z" fill="none"></path><path d="M0,172v-172h172v172z" fill="none"></path><path d="M3.44,168.56v-165.12h165.12v165.12z" fill="none"></path><path d="M12.9,172c-7.12447,0 -12.9,-5.77553 -12.9,-12.9v-146.2c0,-7.12447 5.77553,-12.9 12.9,-12.9h146.2c7.12447,0 12.9,5.77553 12.9,12.9v146.2c0,7.12447 -5.77553,12.9 -12.9,12.9z" fill="none"></path><path d="M16.34,168.56c-7.12447,0 -12.9,-5.77553 -12.9,-12.9v-139.32c0,-7.12447 5.77553,-12.9 12.9,-12.9h139.32c7.12447,0 12.9,5.77553 12.9,12.9v139.32c0,7.12447 -5.77553,12.9 -12.9,12.9z" fill="none"></path><path d="M15.48,172c-8.54937,0 -15.48,-6.93063 -15.48,-15.48v-141.04c0,-8.54937 6.93063,-15.48 15.48,-15.48h141.04c8.54937,0 15.48,6.93063 15.48,15.48v141.04c0,8.54937 -6.93063,15.48 -15.48,15.48z" fill="none"></path><path d="M18.92,168.56c-8.54937,0 -15.48,-6.93063 -15.48,-15.48v-134.16c0,-8.54937 6.93063,-15.48 15.48,-15.48h134.16c8.54937,0 15.48,6.93063 15.48,15.48v134.16c0,8.54937 -6.93063,15.48 -15.48,15.48z" fill="none"></path><path d="M28.38,172c-15.67384,0 -28.38,-12.70616 -28.38,-28.38v-115.24c0,-15.67384 12.70616,-28.38 28.38,-28.38h115.24c15.67384,0 28.38,12.70616 28.38,28.38v115.24c0,15.67384 -12.70616,28.38 -28.38,28.38z" fill="none"></path><path d="M31.82,168.56c-15.67384,0 -28.38,-12.70616 -28.38,-28.38v-108.36c0,-15.67384 12.70616,-28.38 28.38,-28.38h108.36c15.67384,0 28.38,12.70616 28.38,28.38v108.36c0,15.67384 -12.70616,28.38 -28.38,28.38z" fill="none"></path><path d="M32.68,172c-18.04867,0 -32.68,-14.63133 -32.68,-32.68v-106.64c0,-18.04867 14.63133,-32.68 32.68,-32.68h106.64c18.04867,0 32.68,14.63133 32.68,32.68v106.64c0,18.04867 -14.63133,32.68 -32.68,32.68z" fill="none"></path><path d="M36.12,168.56c-18.04867,0 -32.68,-14.63133 -32.68,-32.68v-99.76c0,-18.04867 14.63133,-32.68 32.68,-32.68h99.76c18.04867,0 32.68,14.63133 32.68,32.68v99.76c0,18.04867 -14.63133,32.68 -32.68,32.68z" fill="none"></path><path d="M34.4,172c-18.9986,0 -34.4,-15.4014 -34.4,-34.4v-103.2c0,-18.9986 15.4014,-34.4 34.4,-34.4h103.2c18.9986,0 34.4,15.4014 34.4,34.4v103.2c0,18.9986 -15.4014,34.4 -34.4,34.4z" fill="none"></path><path d="M37.84,168.56c-18.9986,0 -34.4,-15.4014 -34.4,-34.4v-96.32c0,-18.9986 15.4014,-34.4 34.4,-34.4h96.32c18.9986,0 34.4,15.4014 34.4,34.4v96.32c0,18.9986 -15.4014,34.4 -34.4,34.4z" fill="none"></path><path d="M38.7,172c-21.37342,0 -38.7,-17.32658 -38.7,-38.7v-94.6c0,-21.37342 17.32658,-38.7 38.7,-38.7h94.6c21.37342,0 38.7,17.32658 38.7,38.7v94.6c0,21.37342 -17.32658,38.7 -38.7,38.7z" fill="none"></path><path d="M42.14,168.56c-21.37342,0 -38.7,-17.32658 -38.7,-38.7v-87.72c0,-21.37342 17.32658,-38.7 38.7,-38.7h87.72c21.37342,0 38.7,17.32658 38.7,38.7v87.72c0,21.37342 -17.32658,38.7 -38.7,38.7z" fill="none"></path><path d="M45.58,172c-25.17314,0 -45.58,-20.40686 -45.58,-45.58v-80.84c0,-25.17314 20.40686,-45.58 45.58,-45.58h80.84c25.17314,0 45.58,20.40686 45.58,45.58v80.84c0,25.17314 -20.40686,45.58 -45.58,45.58z" fill="none"></path><path d="M49.02,168.56c-25.17314,0 -45.58,-20.40686 -45.58,-45.58v-73.96c0,-25.17314 20.40686,-45.58 45.58,-45.58h73.96c25.17314,0 45.58,20.40686 45.58,45.58v73.96c0,25.17314 -20.40686,45.58 -45.58,45.58z" fill="none"></path></g></svg>